<?xml version="1.0" encoding="UTF-8" standalone="no"?><!DOCTYPE svg PUBLIC "-//W3C//DTD SVG 1.1//EN" "http://www.w3.org/Graphics/SVG/1.1/DTD/svg11.dtd"><svg width="100%" height="100%" viewBox="0 0 13050 4500" version="1.1" xmlns="http://www.w3.org/2000/svg" xmlns:xlink="http://www.w3.org/1999/xlink" xml:space="preserve" xmlns:serif="http://www.serif.com/" style="fill-rule:evenodd;clip-rule:evenodd;stroke-linejoin:round;stroke-miterlimit:2;"><path d="M1539.39,1367.18l3054.28,0l-52.406,121.172l-2965.84,-0c-360.588,-0 -927.969,350.229 -912.126,766.426c-142.866,65.085 -258.922,142.333 -353.761,229.26c98.777,-652.781 539.705,-1116.86 1229.86,-1116.86" style="fill:#182f80;"/><path d="M1509.92,1609.49l1107.03,0c-286.083,165.997 -553.819,565.762 -216.159,831.916l-1436.21,-0c-326.621,8.188 -480.969,244.845 -536.927,487.648l-162.372,704.561l-265.289,0l208.853,-801.075c69.74,-267.552 318.579,-515.6 609.979,-515.6l1152.89,0c-28.559,-205.669 13.304,-400.261 150.668,-579.728l-609.188,0c-264.755,0 -497.493,263.008 -556.8,507.669l-203.075,0c62.233,-355.326 391.963,-635.391 756.6,-635.391" style="fill:#182f80;"/><path d="M796.762,2908.47l-187.544,716.89l-255.482,0l212.901,-854.843c63.355,-140.806 159.373,-232.59 314.439,-235.829l2882.24,0c563.608,132.323 287.426,796.42 -389.755,877.771l-1588.52,0l55.682,-196.524l1516.44,-0c336.814,-37.686 489.728,-424.533 94.987,-525.665l-2432.76,1.601c-177.129,0.128 -185.943,76.364 -222.635,216.599" style="fill:#182f80;"/><path d="M2845.4,1607.73l1585.26,0l-96.606,148.994l-1301.97,0c-282.182,0 -503.143,537.166 -72.059,537.166l805.749,0c123.324,4.398 228.984,30.583 321.928,72.354c640.175,287.812 192.936,1275.69 -444.756,1272.75l-1904.59,-8.777l41.163,-153.65l1677.54,10.563c409.039,-15.329 889.437,-458.538 615.536,-872.969c-60.65,-91.785 -159.795,-154.882 -290.443,-154.882l-1051.39,-0c-635.06,5.207 -367.6,-845.845 114.639,-851.55" style="fill:#182f80;"/><path d="M5477.71,1814.8l1091.48,-0l50.769,-182.466l-1110.31,0c-814.968,102.439 -1228.68,1718.63 -476.571,1783.42l1154.54,0l49.131,-181.785l-1085.76,0c-680.161,-100.194 19.561,-1419.17 326.712,-1419.17" style="fill:#182f80;"/><path d="M6715.79,1369.5l-63.871,186.68l-1196.31,-0c-967.145,251.93 -1304.03,1917.66 -417.595,1938.17l1120.15,0l-29.46,157.201l-1245.44,0c-951.284,0 -680.235,-2029.18 611.672,-2277.16l1220.86,-4.895Z" style="fill:#182f80;"/><path d="M11580.4,3758.39l419.748,-1273.01l457.269,-0l-26.332,79.806c55.442,-29.921 107.573,-51.873 156.851,-66.171c48.947,-14.297 98.906,-21.621 148.791,-21.621c102.421,-0 170.487,31.595 203.425,95.115c33.03,63.19 29.589,155.306 -10.213,276.017l-46.923,142.333l-446.963,0l39.489,-119.718c11.188,-33.913 13.966,-58.534 8.593,-74.487c-5.704,-15.973 -19.376,-23.94 -41.311,-23.94c-23.627,-0 -43.095,7.636 -58.57,23.277c-15.457,15.623 -29.001,40.575 -40.409,75.15l-292.56,887.248l-470.885,0Zm-596.271,-931.466c12.605,-38.255 27.363,-65.857 43.924,-82.805c16.579,-16.965 36.931,-25.283 61.221,-25.283c25.264,0 40.703,8.649 46.646,25.927c5.723,16.966 2.264,44.568 -10.12,82.161l-33.453,101.409l-141.671,0l33.453,-101.409Zm402.157,644.151l71.066,-215.496l-478.872,-0l-54.062,163.936c-11.299,34.263 -24.511,59.196 -40.207,74.506c-15.346,15.291 -34.833,22.946 -58.111,22.946c-22.283,0 -35.937,-7.986 -41.66,-23.958c-5.373,-15.954 -2.576,-40.575 8.281,-73.494l86.301,-261.72l610.55,0l127.097,-385.411c35.532,-107.758 37.133,-183.239 5.06,-226.15c-32.294,-43.225 -106.322,-64.846 -222.378,-64.846l-462.917,-0c-115.394,-0 -203.222,21.29 -263.155,63.852c-60.245,42.562 -108.088,118.062 -144.044,227.144l-230.401,698.691c-36.176,109.726 -38.348,185.888 -6.035,228.119c31.962,42.23 105.861,63.189 221.255,63.189l462.917,0c116.056,0 204.216,-21.29 264.922,-64.183c60.374,-42.893 108.64,-118.724 144.393,-227.125m-1740.45,-742.265l-123.711,-0l80.266,-243.429l123.711,-0l114.473,-347.174l470.885,-0l-114.473,347.174l195.549,-0l-80.266,243.429l-195.549,-0l-237.062,718.987c-8.335,25.265 -6.164,42.893 6.275,52.536c12.458,9.642 40.078,14.628 82.971,14.628l84.148,0l-80.265,243.429l-355.179,0c-115.394,0 -189.182,-21.272 -220.924,-64.183c-32.092,-42.893 -29.81,-119.387 6.256,-228.8l242.895,-736.597Zm-1783.29,1029.58l470.885,0l292.56,-887.248c11.39,-34.575 24.952,-59.527 40.409,-75.15c15.457,-15.641 34.943,-23.277 58.552,-23.277c21.953,-0 35.606,7.967 41.329,23.94c5.373,15.953 2.576,40.574 -8.612,74.487l-292.541,887.248l470.885,0l300.012,-909.863c39.802,-120.711 42.249,-212.827 7.214,-276.017c-34.926,-63.52 -105.66,-95.115 -212.055,-95.115c-52.554,-0 -104.187,7.324 -155.453,21.621c-51.284,14.298 -105.402,36.25 -162.5,66.171l26.313,-79.806l-457.25,-0l-419.748,1273.01Zm-596.27,-931.466l-33.454,101.409l141.671,0l33.434,-101.409c12.403,-37.593 15.844,-65.195 10.14,-82.161c-5.944,-17.278 -21.383,-25.927 -46.647,-25.927c-24.29,0 -44.66,8.318 -61.221,25.283c-16.561,16.948 -31.319,44.55 -43.923,82.805m402.156,644.151c-35.753,108.401 -84.038,184.232 -144.412,227.125c-60.687,42.893 -148.847,64.183 -264.921,64.183l-462.899,0c-115.393,0 -189.311,-20.959 -221.274,-63.189c-32.294,-42.231 -30.122,-118.393 6.054,-228.119l230.383,-698.691c35.974,-109.082 83.798,-184.582 144.062,-227.144c59.933,-42.562 147.761,-63.852 263.155,-63.852l462.917,-0c116.056,-0 190.066,21.621 222.378,64.846c32.073,42.911 30.454,118.392 -5.06,226.15l-127.097,385.411l-610.568,0l-86.283,261.72c-10.857,32.919 -13.654,57.54 -8.281,73.494c5.723,15.972 19.377,23.958 41.661,23.958c23.277,0 42.764,-7.655 58.11,-22.946c15.678,-15.31 28.89,-40.243 40.188,-74.506l54.063,-163.936l478.871,-0l-71.047,215.496Z" style="fill:#182f80;fill-rule:nonzero;"/><path d="M10615.2,742.488l1153.42,421.975l719.079,-310.703c58.24,-25.173 392.092,-80.836 376.414,2.19c-12.66,67.109 -236.381,31.19 -341.654,76.861l-635.907,275.87l137.549,88.436l866.215,-391.19c148.847,-67.219 224.218,70.403 89.632,136.242l-1093.4,534.995l338.986,-44.218l403.464,488.403c184.986,223.924 26.957,376.745 -251.562,172.161l-711.977,-522.997l-854.862,348.812l211.264,152.306l-162.133,73.697l-866.344,-391.061l-54.835,-24.087c42.543,-97.766 349.971,-145.535 439.069,-89.191l300.325,189.9l732.034,-417.595l-1070.08,-579.047c-161.893,-87.59 186.753,-224.145 275.299,-191.759" style="fill:#182f80;"/><path d="M10613.4,1564.68l138.192,91.085l309.526,-176.853l98.262,63.87l-482.699,316.868l-278.354,-198.53c-118.043,-84.185 135.966,-148.571 215.073,-96.44" style="fill:#182f80;"/></svg>